<?xml version='1.0' encoding='UTF-8' standalone='no'?>
<!-- Created with Fritzing (http://www.fritzing.org/) -->
<svg xmlns:svg='http://www.w3.org/2000/svg' xmlns='http://www.w3.org/2000/svg' version='1.2' baseProfile='tiny' x='0in' y='0in' width='4.12802in' height='2.93699in' viewBox='0 0 297.217 211.463' >
<g partID='67050'><g transform='translate(209.544,42.1682)' ><g xmlns="http://www.w3.org/2000/svg" id="schematic">
<!-- Main box -->
<rect xmlns="http://www.w3.org/2000/svg" stroke-width="1.08" height="47.52" y="8.64" fill="#ffffff" stroke="#000000" x="25.92" width="34.56"/>
<!-- Title -->
<text xmlns="http://www.w3.org/2000/svg" y="20.16" text-anchor="middle" font-family="Droid Sans" x="43.2" font-size="5.04">UHF RFID</text>
<text xmlns="http://www.w3.org/2000/svg" y="27.36" text-anchor="middle" font-family="Droid Sans" x="43.2" font-size="4.32">5-pin UART</text>
<!-- Left pins -->
<line xmlns="http://www.w3.org/2000/svg" y1="17.28" stroke-width="1.08" stroke="#000" y2="17.28" x2="25.92" x1="8.64"/>
<line xmlns="http://www.w3.org/2000/svg" y1="25.92" stroke-width="1.08" stroke="#000" y2="25.92" x2="25.92" x1="8.64"/>
<line xmlns="http://www.w3.org/2000/svg" y1="34.56" stroke-width="1.08" stroke="#000" y2="34.56" x2="25.92" x1="8.64"/>
<!-- Right pins -->
<line xmlns="http://www.w3.org/2000/svg" y1="25.92" stroke-width="1.08" stroke="#000" y2="25.92" x2="77.76" x1="60.48"/>
<line xmlns="http://www.w3.org/2000/svg" y1="38.88" stroke-width="1.08" stroke="#000" y2="38.88" x2="77.76" x1="60.48"/>
<!-- Connector pins -->
<rect xmlns="http://www.w3.org/2000/svg" id="connector0pin" height="2.16" y="15.84" fill="none" stroke="none" x="7.2" width="2.16"/>
<rect xmlns="http://www.w3.org/2000/svg" id="connector1pin" height="2.16" y="24.48" fill="none" stroke="none" x="7.2" width="2.16"/>
<rect xmlns="http://www.w3.org/2000/svg" id="connector2pin" height="2.16" y="33.12" fill="none" stroke="none" x="7.2" width="2.16"/>
<rect xmlns="http://www.w3.org/2000/svg" id="connector3pin" height="2.16" y="24.48" fill="none" stroke="none" x="76.32" width="2.16"/>
<rect xmlns="http://www.w3.org/2000/svg" id="connector4pin" height="2.16" y="37.44" fill="none" stroke="none" x="76.32" width="2.16"/>
<!-- Connector terminals -->
<g xmlns="http://www.w3.org/2000/svg" id="connector0terminal" height="2.16" y="15.84" fill="none" stroke="none" x="7.2" width="0.72"/>
<g xmlns="http://www.w3.org/2000/svg" id="connector1terminal" height="2.16" y="24.48" fill="none" stroke="none" x="7.2" width="0.72"/>
<g xmlns="http://www.w3.org/2000/svg" id="connector2terminal" height="2.16" y="33.12" fill="none" stroke="none" x="7.2" width="0.72"/>
<g xmlns="http://www.w3.org/2000/svg" id="connector3terminal" height="2.16" y="24.48" fill="none" stroke="none" x="78.48" width="0.72"/>
<g xmlns="http://www.w3.org/2000/svg" id="connector4terminal" height="2.16" y="37.44" fill="none" stroke="none" x="78.48" width="0.72"/>
<!-- Labels -->
<text xmlns="http://www.w3.org/2000/svg" y="15.84" font-family="Droid Sans" x="12.96" font-size="3.6">VCC</text>
<text xmlns="http://www.w3.org/2000/svg" y="24.48" font-family="Droid Sans" x="12.96" font-size="3.6">GND</text>
<text xmlns="http://www.w3.org/2000/svg" y="33.12" font-family="Droid Sans" x="12.96" font-size="3.6">TX</text>
<text xmlns="http://www.w3.org/2000/svg" y="24.48" font-family="Droid Sans" x="63.36" font-size="3.6">RX</text>
<text xmlns="http://www.w3.org/2000/svg" y="37.44" font-family="Droid Sans" x="63.36" font-size="3.6">EN</text>
</g>
</g></g><g partID='65100'><g transform='translate(54.204,131.305)' ><g transform='matrix(-1,0,0,-1,0,0)'  ><g id="schematic">
<g>
<path d="M13.5,14.966L9.9,14.966c-0.193,0,-0.35,-0.156,-0.35,-0.35s0.156,-0.35,0.35,-0.35L13.5,14.266c0.193,0,0.35,0.156,0.35,0.35S13.694,14.966,13.5,14.966z"/>
</g>
<g>
<path d="M9.9,14.966L6.3,14.966c-0.193,0,-0.35,-0.156,-0.35,-0.35s0.157,-0.35,0.35,-0.35l3.6,0c0.193,0,0.35,0.156,0.35,0.35S10.093,14.966,9.9,14.966z"/>
</g>
<g>
<polygon fill="#FFFFFF" points="9.9,14.616,6.3,7.416,9.9,7.416,13.5,7.416"/>
<path d="M9.9,15.398L5.734,7.066l8.333,0L9.9,15.398zM6.866,7.766L9.9,13.834l3.034,-6.068L6.866,7.766z"/>
</g>
<g>
<path d="M9.9,14.841c-0.124,0,-0.225,-0.101,-0.225,-0.225l0,-7.2c0,-0.124,0.101,-0.225,0.225,-0.225s0.225,0.101,0.225,0.225l0,7.2C10.124,14.74,10.024,14.841,9.9,14.841z"/>
</g>
<g>
<path d="M1.8,12.141c-0.058,0,-0.115,-0.021,-0.159,-0.065c-0.088,-0.088,-0.088,-0.23,0,-0.318l2.34,-2.341c0.088,-0.088,0.23,-0.088,0.318,0s0.088,0.23,0,0.318l-2.34,2.341C1.915,12.12,1.858,12.141,1.8,12.141z"/>
</g>
<g>
<path d="M2.16,15.381c-0.058,0,-0.115,-0.021,-0.159,-0.065c-0.088,-0.088,-0.088,-0.23,0,-0.318l2.34,-2.34c0.088,-0.088,0.23,-0.088,0.318,0s0.088,0.23,0,0.318l-2.34,2.34C2.276,15.359,2.218,15.381,2.16,15.381z"/>
</g>
<g id="connector0pin">
<path fill="#787878" d="M9.9,22.166c-0.193,0,-0.35,-0.156,-0.35,-0.35l0,-7.2c0,-0.193,0.156,-0.35,0.35,-0.35s0.35,0.156,0.35,0.35l0,7.2C10.249,22.01,10.093,22.166,9.9,22.166z"/>
</g>
<g id="connector0terminal">
<rect height="0.001" y="21.816" fill="none" x="9.9" width="0.001"/>
</g>
<g transform="matrix(1, 0, 0, 1, 3.429, 6.4262)">
<g>
<g transform="rotate(270)">
<g>
<g enable-background="new    ">
<path fill="#787878" d="M-11.647,5.54l-0.891,0L-12.538,5.388l0.342,-0.372c0.049,-0.053,0.093,-0.101,0.131,-0.145s0.071,-0.086,0.099,-0.128c0.026,-0.042,0.047,-0.084,0.062,-0.125c0.015,-0.043,0.021,-0.088,0.021,-0.138c0,-0.038,-0.005,-0.072,-0.017,-0.102s-0.027,-0.054,-0.047,-0.075c-0.021,-0.02,-0.045,-0.035,-0.073,-0.046s-0.06,-0.016,-0.094,-0.016c-0.062,0,-0.118,0.013,-0.167,0.038c-0.051,0.024,-0.098,0.057,-0.143,0.096l-0.1,-0.116c0.025,-0.023,0.055,-0.046,0.084,-0.065c0.029,-0.021,0.063,-0.039,0.097,-0.054s0.071,-0.026,0.109,-0.036c0.038,-0.008,0.079,-0.013,0.121,-0.013c0.063,0,0.119,0.009,0.169,0.026c0.051,0.018,0.094,0.043,0.129,0.076c0.035,0.032,0.063,0.072,0.082,0.119c0.019,0.048,0.028,0.101,0.028,0.16c0,0.056,-0.009,0.108,-0.026,0.158c-0.017,0.05,-0.041,0.1,-0.07,0.148c-0.031,0.048,-0.066,0.097,-0.109,0.146c-0.041,0.049,-0.087,0.1,-0.136,0.152L-12.32,5.37l0,0.008l0.673,0L-11.647,5.54z"/>
</g>
</g>
</g>
</g>
</g>
<g id="connector1pin">
<path fill="#787878" d="M9.9,7.766c-0.193,0,-0.35,-0.157,-0.35,-0.35l0,-7.2c0,-0.193,0.156,-0.35,0.35,-0.35s0.35,0.157,0.35,0.35l0,7.2C10.249,7.609,10.093,7.766,9.9,7.766z"/>
</g>
<g id="connector1terminal">
<polygon fill="none" points="9.9,0.216,9.901,0.216,9.901,0.216"/>
</g>
<g transform="matrix(1, 0, 0, 1, 3.429, 1.3462)">
<g>
<g transform="rotate(270)">
<g>
<g enable-background="new    ">
<path fill="#787878" d="M-2.616,5.54l-0.172,0L-2.788,4.648c0,-0.028,0,-0.058,0,-0.09s0.001,-0.063,0.002,-0.095c0.001,-0.032,0.002,-0.063,0.003,-0.092c0.001,-0.028,0.002,-0.054,0.002,-0.076c-0.011,0.012,-0.021,0.021,-0.029,0.03s-0.017,0.017,-0.026,0.024s-0.018,0.016,-0.028,0.025c-0.01,0.008,-0.021,0.019,-0.035,0.03l-0.145,0.118l-0.094,-0.12l0.374,-0.292l0.146,0L-2.618,5.54z"/>
</g>
</g>
</g>
</g>
</g>
<g>
<path d="M0.18,13.536l1.08,-2.521l1.44,1.438L0.18,13.536z"/>
</g>
<g>
<path d="M0.54,16.776l1.08,-2.521l1.438,1.438L0.54,16.776z"/>
</g>
</g>
</g></g></g><g partID='65130'><g transform='translate(75.804,124.105)' ><g transform='matrix(-1,0,0,-1,0,0)'  ><g id="schematic">
<g>
<path d="M13.5,14.966L9.9,14.966c-0.193,0,-0.35,-0.156,-0.35,-0.35s0.156,-0.35,0.35,-0.35L13.5,14.266c0.193,0,0.35,0.156,0.35,0.35S13.694,14.966,13.5,14.966z"/>
</g>
<g>
<path d="M9.9,14.966L6.3,14.966c-0.193,0,-0.35,-0.156,-0.35,-0.35s0.157,-0.35,0.35,-0.35l3.6,0c0.193,0,0.35,0.156,0.35,0.35S10.093,14.966,9.9,14.966z"/>
</g>
<g>
<polygon fill="#FFFFFF" points="9.9,14.616,6.3,7.416,9.9,7.416,13.5,7.416"/>
<path d="M9.9,15.398L5.734,7.066l8.333,0L9.9,15.398zM6.866,7.766L9.9,13.834l3.034,-6.068L6.866,7.766z"/>
</g>
<g>
<path d="M9.9,14.841c-0.124,0,-0.225,-0.101,-0.225,-0.225l0,-7.2c0,-0.124,0.101,-0.225,0.225,-0.225s0.225,0.101,0.225,0.225l0,7.2C10.124,14.74,10.024,14.841,9.9,14.841z"/>
</g>
<g>
<path d="M1.8,12.141c-0.058,0,-0.115,-0.021,-0.159,-0.065c-0.088,-0.088,-0.088,-0.23,0,-0.318l2.34,-2.341c0.088,-0.088,0.23,-0.088,0.318,0s0.088,0.23,0,0.318l-2.34,2.341C1.915,12.12,1.858,12.141,1.8,12.141z"/>
</g>
<g>
<path d="M2.16,15.381c-0.058,0,-0.115,-0.021,-0.159,-0.065c-0.088,-0.088,-0.088,-0.23,0,-0.318l2.34,-2.34c0.088,-0.088,0.23,-0.088,0.318,0s0.088,0.23,0,0.318l-2.34,2.34C2.276,15.359,2.218,15.381,2.16,15.381z"/>
</g>
<g id="connector0pin">
<path fill="#787878" d="M9.9,22.166c-0.193,0,-0.35,-0.156,-0.35,-0.35l0,-7.2c0,-0.193,0.156,-0.35,0.35,-0.35s0.35,0.156,0.35,0.35l0,7.2C10.249,22.01,10.093,22.166,9.9,22.166z"/>
</g>
<g id="connector0terminal">
<rect height="0.001" y="21.816" fill="none" x="9.9" width="0.001"/>
</g>
<g transform="matrix(1, 0, 0, 1, 3.429, 6.4262)">
<g>
<g transform="rotate(270)">
<g>
<g enable-background="new    ">
<path fill="#787878" d="M-11.647,5.54l-0.891,0L-12.538,5.388l0.342,-0.372c0.049,-0.053,0.093,-0.101,0.131,-0.145s0.071,-0.086,0.099,-0.128c0.026,-0.042,0.047,-0.084,0.062,-0.125c0.015,-0.043,0.021,-0.088,0.021,-0.138c0,-0.038,-0.005,-0.072,-0.017,-0.102s-0.027,-0.054,-0.047,-0.075c-0.021,-0.02,-0.045,-0.035,-0.073,-0.046s-0.06,-0.016,-0.094,-0.016c-0.062,0,-0.118,0.013,-0.167,0.038c-0.051,0.024,-0.098,0.057,-0.143,0.096l-0.1,-0.116c0.025,-0.023,0.055,-0.046,0.084,-0.065c0.029,-0.021,0.063,-0.039,0.097,-0.054s0.071,-0.026,0.109,-0.036c0.038,-0.008,0.079,-0.013,0.121,-0.013c0.063,0,0.119,0.009,0.169,0.026c0.051,0.018,0.094,0.043,0.129,0.076c0.035,0.032,0.063,0.072,0.082,0.119c0.019,0.048,0.028,0.101,0.028,0.16c0,0.056,-0.009,0.108,-0.026,0.158c-0.017,0.05,-0.041,0.1,-0.07,0.148c-0.031,0.048,-0.066,0.097,-0.109,0.146c-0.041,0.049,-0.087,0.1,-0.136,0.152L-12.32,5.37l0,0.008l0.673,0L-11.647,5.54z"/>
</g>
</g>
</g>
</g>
</g>
<g id="connector1pin">
<path fill="#787878" d="M9.9,7.766c-0.193,0,-0.35,-0.157,-0.35,-0.35l0,-7.2c0,-0.193,0.156,-0.35,0.35,-0.35s0.35,0.157,0.35,0.35l0,7.2C10.249,7.609,10.093,7.766,9.9,7.766z"/>
</g>
<g id="connector1terminal">
<polygon fill="none" points="9.9,0.216,9.901,0.216,9.901,0.216"/>
</g>
<g transform="matrix(1, 0, 0, 1, 3.429, 1.3462)">
<g>
<g transform="rotate(270)">
<g>
<g enable-background="new    ">
<path fill="#787878" d="M-2.616,5.54l-0.172,0L-2.788,4.648c0,-0.028,0,-0.058,0,-0.09s0.001,-0.063,0.002,-0.095c0.001,-0.032,0.002,-0.063,0.003,-0.092c0.001,-0.028,0.002,-0.054,0.002,-0.076c-0.011,0.012,-0.021,0.021,-0.029,0.03s-0.017,0.017,-0.026,0.024s-0.018,0.016,-0.028,0.025c-0.01,0.008,-0.021,0.019,-0.035,0.03l-0.145,0.118l-0.094,-0.12l0.374,-0.292l0.146,0L-2.618,5.54z"/>
</g>
</g>
</g>
</g>
</g>
<g>
<path d="M0.18,13.536l1.08,-2.521l1.44,1.438L0.18,13.536z"/>
</g>
<g>
<path d="M0.54,16.776l1.08,-2.521l1.438,1.438L0.54,16.776z"/>
</g>
</g>
</g></g></g><g partID='66050'><g transform='translate(36.7534,77.592)' ><g xmlns="http://www.w3.org/2000/svg" id="schematic">
<line xmlns="http://www.w3.org/2000/svg" y1="3.096" stroke-width="0.432002" stroke="#000000" y2="0.216" x2="8.63003" stroke-linecap="round" class="other" x1="7.55002"/>
<line xmlns="http://www.w3.org/2000/svg" y1="0.216" stroke-width="0.432002" stroke="#000000" y2="5.976" x2="10.43" stroke-linecap="round" class="other" x1="8.63003"/>
<line xmlns="http://www.w3.org/2000/svg" y1="5.976" stroke-width="0.432002" stroke="#000000" y2="0.216" x2="12.23" stroke-linecap="round" class="other" x1="10.43"/>
<line xmlns="http://www.w3.org/2000/svg" y1="0.216" stroke-width="0.432002" stroke="#000000" y2="5.976" x2="14.03" stroke-linecap="round" class="other" x1="12.23"/>
<line xmlns="http://www.w3.org/2000/svg" y1="5.976" stroke-width="0.432002" stroke="#000000" y2="0.216" x2="15.8301" stroke-linecap="round" class="other" x1="14.03"/>
<line xmlns="http://www.w3.org/2000/svg" y1="0.216" stroke-width="0.432002" stroke="#000000" y2="5.976" x2="17.6301" stroke-linecap="round" class="other" x1="15.8301"/>
<line xmlns="http://www.w3.org/2000/svg" y1="5.976" stroke-width="0.432002" stroke="#000000" y2="0.216" x2="19.4301" stroke-linecap="round" class="other" x1="17.6301"/>
<line xmlns="http://www.w3.org/2000/svg" y1="0.216" stroke-width="0.432002" stroke="#000000" y2="5.976" x2="21.2301" stroke-linecap="round" class="other" x1="19.4301"/>
<line xmlns="http://www.w3.org/2000/svg" y1="5.976" stroke-width="0.432002" stroke="#000000" y2="3.096" x2="21.9501" stroke-linecap="round" class="other" x1="21.2301"/>
<line xmlns="http://www.w3.org/2000/svg" y1="3.096" id="connector1pin" stroke-width="0.700001" connectorname="2" stroke="#787878" y2="3.096" x2="21.9501" stroke-linecap="round" class="pin" x1="29.1502"/>
<g xmlns="http://www.w3.org/2000/svg" id="connector1terminal" stroke-width="0" height="0.000283465" y="3.096" fill="none" stroke="none" x="29.1502" width="0.000283466" class="terminal"/>
<text xmlns="http://www.w3.org/2000/svg" stroke-width="0" y="2.046" fill="#8c8c8c" text-anchor="middle" stroke="none" font-family="'Droid Sans'" font-size="2.50001" x="25.5501" class="text">2</text>
<line xmlns="http://www.w3.org/2000/svg" y1="3.096" id="connector0pin" stroke-width="0.700001" connectorname="1" stroke="#787878" y2="3.096" x2="7.55002" stroke-linecap="round" class="pin" x1="0.350001"/>
<g xmlns="http://www.w3.org/2000/svg" id="connector0terminal" stroke-width="0" height="0.000283465" y="3.096" fill="none" stroke="none" x="0.350001" width="0.000283466" class="terminal"/>
<text xmlns="http://www.w3.org/2000/svg" stroke-width="0" y="2.046" fill="#8c8c8c" text-anchor="middle" stroke="none" font-family="'Droid Sans'" font-size="2.50001" x="3.95001" class="text">1</text>
</g>
</g></g><g partID='66020'><g transform='translate(15.1534,99.192)' ><g xmlns="http://www.w3.org/2000/svg" id="schematic">
<line xmlns="http://www.w3.org/2000/svg" y1="3.096" stroke-width="0.432002" stroke="#000000" y2="0.216" x2="8.63003" stroke-linecap="round" class="other" x1="7.55002"/>
<line xmlns="http://www.w3.org/2000/svg" y1="0.216" stroke-width="0.432002" stroke="#000000" y2="5.976" x2="10.43" stroke-linecap="round" class="other" x1="8.63003"/>
<line xmlns="http://www.w3.org/2000/svg" y1="5.976" stroke-width="0.432002" stroke="#000000" y2="0.216" x2="12.23" stroke-linecap="round" class="other" x1="10.43"/>
<line xmlns="http://www.w3.org/2000/svg" y1="0.216" stroke-width="0.432002" stroke="#000000" y2="5.976" x2="14.03" stroke-linecap="round" class="other" x1="12.23"/>
<line xmlns="http://www.w3.org/2000/svg" y1="5.976" stroke-width="0.432002" stroke="#000000" y2="0.216" x2="15.8301" stroke-linecap="round" class="other" x1="14.03"/>
<line xmlns="http://www.w3.org/2000/svg" y1="0.216" stroke-width="0.432002" stroke="#000000" y2="5.976" x2="17.6301" stroke-linecap="round" class="other" x1="15.8301"/>
<line xmlns="http://www.w3.org/2000/svg" y1="5.976" stroke-width="0.432002" stroke="#000000" y2="0.216" x2="19.4301" stroke-linecap="round" class="other" x1="17.6301"/>
<line xmlns="http://www.w3.org/2000/svg" y1="0.216" stroke-width="0.432002" stroke="#000000" y2="5.976" x2="21.2301" stroke-linecap="round" class="other" x1="19.4301"/>
<line xmlns="http://www.w3.org/2000/svg" y1="5.976" stroke-width="0.432002" stroke="#000000" y2="3.096" x2="21.9501" stroke-linecap="round" class="other" x1="21.2301"/>
<line xmlns="http://www.w3.org/2000/svg" y1="3.096" id="connector1pin" stroke-width="0.700001" connectorname="2" stroke="#787878" y2="3.096" x2="21.9501" stroke-linecap="round" class="pin" x1="29.1502"/>
<g xmlns="http://www.w3.org/2000/svg" id="connector1terminal" stroke-width="0" height="0.000283465" y="3.096" fill="none" stroke="none" x="29.1502" width="0.000283466" class="terminal"/>
<text xmlns="http://www.w3.org/2000/svg" stroke-width="0" y="2.046" fill="#8c8c8c" text-anchor="middle" stroke="none" font-family="'Droid Sans'" font-size="2.50001" x="25.5501" class="text">2</text>
<line xmlns="http://www.w3.org/2000/svg" y1="3.096" id="connector0pin" stroke-width="0.700001" connectorname="1" stroke="#787878" y2="3.096" x2="7.55002" stroke-linecap="round" class="pin" x1="0.350001"/>
<g xmlns="http://www.w3.org/2000/svg" id="connector0terminal" stroke-width="0" height="0.000283465" y="3.096" fill="none" stroke="none" x="0.350001" width="0.000283466" class="terminal"/>
<text xmlns="http://www.w3.org/2000/svg" stroke-width="0" y="2.046" fill="#8c8c8c" text-anchor="middle" stroke="none" font-family="'Droid Sans'" font-size="2.50001" x="3.95001" class="text">1</text>
</g>
</g></g><g partID='67010'><g transform='translate(209.755,122.938)' ><g id="schematic" gorn="0.1">
<rect id="part_symbol" stroke-width="0.9002" gorn="0.1.0" height="68.9248" y="7.69998" fill="#FFFFFF" stroke="#010101" x="7.7" stroke-linecap="round" width="43.198"/>
<g id="pins" gorn="0.1.1">
<line y1="29.7499" id="connector13pin" stroke-width="0.7" gorn="0.1.1.0" fill="none" stroke="#565656" y2="29.7539" x2="58.099" stroke-linecap="round" x1="50.899" stroke-linejoin="round"/>
<g id="connector13terminal" stroke-width="0" gorn="0.1.1.1" height="0.00140877" y="29.7512" fill="none" stroke="none" x="58.4413" width="0.0158008"/>
<line y1="22.5499" id="connector6pin" stroke-width="0.7" gorn="0.1.1.2" fill="none" stroke="#565656" y2="22.5499" x2="7.699" stroke-linecap="round" x1="0.499" stroke-linejoin="round"/>
<g id="connector6terminal" stroke-width="0" gorn="0.1.1.3" height="0.0014" y="22.5492" fill="none" stroke="none" x="0.1411" width="0.0158"/>
<line y1="15.35" id="connector5pin" stroke-width="0.7" gorn="0.1.1.4" fill="none" stroke="#565656" y2="15.35" x2="7.699" stroke-linecap="round" x1="0.499" stroke-linejoin="round"/>
<g id="connector5terminal" stroke-width="0" gorn="0.1.1.5" height="0.0014" y="15.3493" fill="none" stroke="none" x="0.1411" width="0.0158"/>
<line y1="36.9499" stroke-width="0.7" display="none" fill="none" stroke="#565656" y2="36.9499" x2="7.699" stroke-linecap="round" x1="0.499" stroke-linejoin="round"/>
<line y1="29.7499" id="connector9pin" stroke-width="0.7" gorn="0.1.1.7" fill="none" stroke="#565656" y2="29.7499" x2="7.699" stroke-linecap="round" x1="0.499" stroke-linejoin="round"/>
<g id="connector9terminal" stroke-width="0" gorn="0.1.1.8" height="0.0014" y="29.7492" fill="none" stroke="none" x="0.1411" width="0.0158"/>
<line y1="22.5499" id="connector12pin" stroke-width="0.7" gorn="0.1.1.9" fill="none" stroke="#565656" y2="22.5499" x2="58.099" stroke-linecap="round" x1="50.899" stroke-linejoin="round"/>
<g id="connector12terminal" stroke-width="0" gorn="0.1.1.10" height="0.0014" y="22.5492" fill="none" stroke="none" x="58.4411" width="0.0158"/>
<line y1="15.35" id="connector11pin" stroke-width="0.7" gorn="0.1.1.11" fill="none" stroke="#565656" y2="15.354" x2="58.099" stroke-linecap="round" x1="50.899" stroke-linejoin="round"/>
<g id="connector11terminal" stroke-width="0" gorn="0.1.1.12" height="0.00140877" y="15.3513" fill="none" stroke="none" x="58.4413" width="0.0158008"/>
<line y1="36.9499" id="connector10pin" stroke-width="0.7" gorn="0.1.1.13" fill="none" stroke="#565656" y2="36.9499" x2="7.699" stroke-linecap="round" x1="0.499" stroke-linejoin="round"/>
<g id="connector10terminal" stroke-width="0" gorn="0.1.1.14" height="0.0014" y="36.9492" fill="none" stroke="none" x="0.1411" width="0.0158"/>
<line y1="36.9499" id="connector14pin" stroke-width="0.7" gorn="0.1.1.15" fill="none" stroke="#565656" y2="36.9499" x2="58.1" stroke-linecap="round" x1="50.899" stroke-linejoin="round"/>
<g id="connector14terminal" stroke-width="0" gorn="0.1.1.16" height="0.0014" y="36.9492" fill="none" stroke="none" x="58.4421" width="0.015802"/>
</g>
<g id="pin_numbers" gorn="0.1.2">
<g transform="matrix(1, 0, 0, 1, 53.8096, 13.9043)">
<g>
<g>
<g>
<g>
<g>
<g>
<g>
<g>
<text fill="#565656" font-family="DroidSans" font-size="3">5</text>
</g>
</g>
</g>
</g>
</g>
</g>
</g>
</g>
</g>
<g transform="matrix(1, 0, 0, 1, 53.6396, 21.1991)">
<g>
<g>
<g>
<g>
<g>
<g>
<g>
<g>
<text fill="#565656" font-family="DroidSans" font-size="3">6</text>
</g>
</g>
</g>
</g>
</g>
</g>
</g>
</g>
</g>
<g transform="matrix(1, 0, 0, 1, 3.2734, 13.8105)">
<g>
<g>
<g>
<g>
<g>
<g>
<g>
<g>
<text fill="#565656" font-family="DroidSans" font-size="3">1</text>
</g>
</g>
</g>
</g>
</g>
</g>
</g>
</g>
</g>
<g transform="matrix(1, 0, 0, 1, 3.2734, 20.9354)">
<g>
<g>
<g>
<g>
<g>
<g>
<g>
<g>
<text fill="#565656" font-family="DroidSans" font-size="3">2</text>
</g>
</g>
</g>
</g>
</g>
</g>
</g>
</g>
</g>
<g transform="matrix(1, 0, 0, 1, 3.2734, 28.4354)">
<g>
<g>
<g>
<g>
<g>
<g>
<g>
<g>
<text fill="#565656" font-family="DroidSans" font-size="3">3</text>
</g>
</g>
</g>
</g>
</g>
</g>
</g>
</g>
</g>
<g transform="matrix(1, 0, 0, 1, 53.8096, 28.4354)">
<g>
<g>
<g>
<g>
<g>
<g>
<g>
<g>
<text fill="#565656" font-family="DroidSans" font-size="3">7</text>
</g>
</g>
</g>
</g>
</g>
</g>
</g>
</g>
</g>
<g transform="matrix(1, 0, 0, 1, 3.2734, 35.7274)">
<g>
<g>
<g>
<g>
<g>
<g>
<g>
<g>
<text fill="#565656" font-family="DroidSans" font-size="3">4</text>
</g>
</g>
</g>
</g>
</g>
</g>
</g>
</g>
</g>
<g transform="matrix(1, 0, 0, 1, 53.6396, 35.7274)">
<g>
<g>
<g>
<g>
<g>
<g>
<g>
<g>
<text fill="#565656" font-family="DroidSans" font-size="3">8</text>
</g>
</g>
</g>
</g>
</g>
</g>
</g>
</g>
</g>
</g>
<g id="pin_labels" gorn="0.1.3">
<g transform="matrix(1, 0, 0, 1, 38.374, 30.8183)">
<g>
<g>
<g>
<g>
<g>
<g>
<g>
<g>
<text fill="#565656" font-family="DroidSans" font-size="4.5">GND</text>
</g>
</g>
</g>
</g>
</g>
</g>
</g>
</g>
</g>
<g transform="matrix(1, 0, 0, 1, 41.2109, 45.369)">
<g>
<g>
<g>
<g>
<g>
<g>
<g>
<g>
<text display="none" fill="#565656" font-family="DroidSans" font-size="4.5">Out</text>
</g>
</g>
</g>
</g>
</g>
</g>
</g>
</g>
</g>
<g transform="matrix(1, 0, 0, 1, 9.7588, 16.4336)">
<g>
<g>
<g>
<g>
<g>
<g>
<g>
<g>
<text fill="#565656" font-family="DroidSans" font-size="4.5">VCC</text>
</g>
</g>
</g>
</g>
</g>
</g>
</g>
</g>
</g>
<g transform="matrix(1, 0, 0, 1, 9.7178, 23.7362)">
<g>
<g>
<g>
<g>
<g>
<g>
<g>
<g>
<text fill="#565656" font-family="DroidSans" font-size="4.5">VCC</text>
</g>
</g>
</g>
</g>
</g>
</g>
</g>
</g>
</g>
<g transform="matrix(1, 0, 0, 1, 9.7588, 30.8183)">
<g>
<g>
<g>
<g>
<g>
<g>
<g>
<g>
<text fill="#565656" font-family="DroidSans" font-size="4.5">VCC</text>
</g>
</g>
</g>
</g>
</g>
</g>
</g>
</g>
</g>
<g transform="matrix(1, 0, 0, 1, 9.7178, 38.122)">
<g>
<g>
<g>
<g>
<g>
<g>
<g>
<g>
<text display="none" fill="#565656" font-family="DroidSans" font-size="4.5">In</text>
</g>
</g>
</g>
</g>
</g>
</g>
</g>
</g>
</g>
<g transform="matrix(1, 0, 0, 1, 38.374, 16.4336)">
<g>
<g>
<g>
<g>
<g>
<g>
<g>
<g>
<text fill="#565656" font-family="DroidSans" font-size="4.5">GND</text>
</g>
</g>
</g>
</g>
</g>
</g>
</g>
</g>
</g>
<g transform="matrix(1, 0, 0, 1, 38.4258, 23.7362)">
<g>
<g>
<g>
<g>
<g>
<g>
<g>
<g>
<text fill="#565656" font-family="DroidSans" font-size="4.5">GND</text>
</g>
</g>
</g>
</g>
</g>
</g>
</g>
</g>
</g>
<g transform="matrix(1, 0, 0, 1, 9.7178, 37.9433)">
<g>
<g>
<g>
<g>
<g>
<g>
<g>
<g>
<text fill="#565656" font-family="DroidSans" font-size="4.5">VCC</text>
</g>
</g>
</g>
</g>
</g>
</g>
</g>
</g>
</g>
<g transform="matrix(1, 0, 0, 1, 38.374, 37.9433)">
<g>
<g>
<g>
<g>
<g>
<g>
<g>
<g>
<text fill="#565656" font-family="DroidSans" font-size="4.5">GND</text>
</g>
</g>
</g>
</g>
</g>
</g>
</g>
</g>
</g>
</g>
<g transform="matrix(1, 0, 0, 1, 17.2783, 49.5878)">
<g>
<g>
<g>
<g>
<g>
<g>
<g>
<g>
<g>
<text y="0" fill="#010101" font-family="DroidSans" x="0" font-size="6">YwRobot </text>
<text y="7.19898" fill="#010101" font-family="DroidSans" x="-4.226" font-size="6">Breadboard </text>
<text y="14.4" fill="#010101" font-family="DroidSans" x="-6.536" font-size="6">Power Supply </text>
<text y="21.5999" fill="#010101" font-family="DroidSans" x="3.81" font-size="6">MB-V2</text>
</g>
</g>
</g>
</g>
</g>
</g>
</g>
</g>
</g>
</g>
</g>
</g></g><g partID='88070'><g transform='translate(66.4475,11.9287)' ><g id="schematic">
<line y1="11.159" stroke-width="0.7" fill="none" stroke="#000000" y2="11.159" stroke-linecap="round" x2="21.6" x1="19.8"/>
<line y1="11.159" stroke-width="0.7" fill="none" stroke="#000000" y2="7.559" stroke-linecap="round" x2="19.8" x1="7.2"/>
<circle cy="11.159" r="0.36" stroke-width="0.7" fill="none" stroke="#000000" cx="7.2"/>
<circle cy="11.159" r="0.36" stroke-width="0.7" fill="none" stroke="#000000" cx="21.6"/>
<g transform="matrix(1, 0, 0, 1, 2.7612, 2.718)">
<text fill="#787878" font-family="'DroidSans'" font-size="2">1</text>
</g>
<g transform="matrix(1, 0, 0, 1, 24.604, 2.718)">
<text fill="#787878" font-family="'DroidSans'" font-size="2">2</text>
</g>
<g transform="matrix(1, 0, 0, 1, 2.7612, 16.843)">
<text fill="#787878" font-family="'DroidSans'" font-size="2">1</text>
</g>
<g transform="matrix(1, 0, 0, 1, 24.604, 16.843)">
<text fill="#787878" font-family="'DroidSans'" font-size="2">2</text>
</g>
<line y1="3.96" stroke-width="0.7" fill="none" stroke="#000000" y2="18.359" stroke-linecap="round" x2="21.6" x1="21.6"/>
<line y1="3.96" stroke-width="0.7" fill="none" stroke="#000000" y2="18.359" stroke-linecap="round" x2="7.2" x1="7.2"/>
<line y1="18.359" id="connector3pin" stroke-width="0.7" fill="none" stroke="#555555" y2="18.359" stroke-linecap="round" x2="7.2" x1="0.322"/>
<line y1="3.96" id="connector2pin" stroke-width="0.7" fill="none" stroke="#555555" y2="3.96" stroke-linecap="round" x2="7.2" x1="0.322"/>
<g id="connector2terminal" fill="none" points="0.822,4.281,0.837,3.64,0,3.64,0,4.281"/>
<g id="connector3terminal" fill="none" points="0.822,18.694,0.837,18.053,0,18.053,0,18.694"/>
<line y1="18.359" id="connector1pin" stroke-width="0.7" fill="none" stroke="#555555" y2="18.359" stroke-linecap="round" x2="21.6" x1="28.451"/>
<g id="connector1terminal" height="0.672" y="18.006" fill="none" x="27.806" width="0.994"/>
<g id="connector0terminal" height="0.719" y="3.6" fill="none" x="27.712" width="1.088"/>
<line y1="3.96" id="connector0pin" stroke-width="0.7" fill="none" stroke="#555555" y2="3.96" stroke-linecap="round" x2="21.6" x1="28.451"/>
</g>
</g></g><g partID='95670'><g transform='translate(137.553,12.792)' ><g xmlns="http://www.w3.org/2000/svg" id="schematic">
<line xmlns="http://www.w3.org/2000/svg" y1="3.096" stroke-width="0.432002" stroke="#000000" y2="0.216" x2="8.63003" stroke-linecap="round" class="other" x1="7.55002"/>
<line xmlns="http://www.w3.org/2000/svg" y1="0.216" stroke-width="0.432002" stroke="#000000" y2="5.976" x2="10.43" stroke-linecap="round" class="other" x1="8.63003"/>
<line xmlns="http://www.w3.org/2000/svg" y1="5.976" stroke-width="0.432002" stroke="#000000" y2="0.216" x2="12.23" stroke-linecap="round" class="other" x1="10.43"/>
<line xmlns="http://www.w3.org/2000/svg" y1="0.216" stroke-width="0.432002" stroke="#000000" y2="5.976" x2="14.03" stroke-linecap="round" class="other" x1="12.23"/>
<line xmlns="http://www.w3.org/2000/svg" y1="5.976" stroke-width="0.432002" stroke="#000000" y2="0.216" x2="15.8301" stroke-linecap="round" class="other" x1="14.03"/>
<line xmlns="http://www.w3.org/2000/svg" y1="0.216" stroke-width="0.432002" stroke="#000000" y2="5.976" x2="17.6301" stroke-linecap="round" class="other" x1="15.8301"/>
<line xmlns="http://www.w3.org/2000/svg" y1="5.976" stroke-width="0.432002" stroke="#000000" y2="0.216" x2="19.4301" stroke-linecap="round" class="other" x1="17.6301"/>
<line xmlns="http://www.w3.org/2000/svg" y1="0.216" stroke-width="0.432002" stroke="#000000" y2="5.976" x2="21.2301" stroke-linecap="round" class="other" x1="19.4301"/>
<line xmlns="http://www.w3.org/2000/svg" y1="5.976" stroke-width="0.432002" stroke="#000000" y2="3.096" x2="21.9501" stroke-linecap="round" class="other" x1="21.2301"/>
<line xmlns="http://www.w3.org/2000/svg" y1="3.096" id="connector1pin" stroke-width="0.700001" connectorname="2" stroke="#787878" y2="3.096" x2="21.9501" stroke-linecap="round" class="pin" x1="29.1502"/>
<g xmlns="http://www.w3.org/2000/svg" id="connector1terminal" stroke-width="0" height="0.000283465" y="3.096" fill="none" stroke="none" x="29.1502" width="0.000283466" class="terminal"/>
<text xmlns="http://www.w3.org/2000/svg" stroke-width="0" y="2.046" fill="#8c8c8c" text-anchor="middle" stroke="none" font-family="'Droid Sans'" font-size="2.50001" x="25.5501" class="text">2</text>
<line xmlns="http://www.w3.org/2000/svg" y1="3.096" id="connector0pin" stroke-width="0.700001" connectorname="1" stroke="#787878" y2="3.096" x2="7.55002" stroke-linecap="round" class="pin" x1="0.350001"/>
<g xmlns="http://www.w3.org/2000/svg" id="connector0terminal" stroke-width="0" height="0.000283465" y="3.096" fill="none" stroke="none" x="0.350001" width="0.000283466" class="terminal"/>
<text xmlns="http://www.w3.org/2000/svg" stroke-width="0" y="2.046" fill="#8c8c8c" text-anchor="middle" stroke="none" font-family="'Droid Sans'" font-size="2.50001" x="3.95001" class="text">1</text>
</g>
</g></g><g partID='94290'><line stroke-linecap='round' stroke='#404040' x1='209.599' y1='67.5054' x2='217.104' y2='67.7282' stroke-width='0.699998' /></g><g partID='91680'><line stroke-linecap='round' stroke='#404040' x1='274.883' y1='138.113' x2='274.883' y2='109.456' stroke-width='0.699998' /></g><g partID='91470'><line stroke-linecap='round' stroke='#404040' x1='274.883' y1='109.456' x2='209.796' y2='109.581' stroke-width='0.699998' /></g><g partID='91050'><line stroke-linecap='round' stroke='#404040' x1='209.796' y1='109.581' x2='209.599' y2='67.5054' stroke-width='0.699998' /></g><g partID='67080'><line stroke-linecap='round' stroke='#404040' x1='268.204' y1='138.29' x2='274.883' y2='138.113' stroke-width='0.699998' /></g><circle  fill="black" cx="268.204" cy="138.29" r="1.44" stroke-width="0" stroke="none" /><g partID='90980'><line stroke-linecap='round' stroke='#cc1414' x1='202.753' y1='59.1817' x2='217.104' y2='59.0882' stroke-width='0.699998' /></g><g partID='67150'><line stroke-linecap='round' stroke='#cc1414' x1='209.904' y1='138.288' x2='202.753' y2='138.191' stroke-width='0.699998' /></g><circle  fill="black" cx="209.904" cy="138.288" r="1.44" stroke-width="0" stroke="none" /><g partID='90910'><line stroke-linecap='round' stroke='#cc1414' x1='202.753' y1='138.191' x2='202.753' y2='59.1817' stroke-width='0.699998' /></g><g partID='93170'><line stroke-linecap='round' stroke='#cc1414' x1='202.772' y1='195.84' x2='108.912' y2='195.824' stroke-width='0.699998' /></g><g partID='93100'><line stroke-linecap='round' stroke='#cc1414' x1='202.772' y1='145.441' x2='202.772' y2='195.84' stroke-width='0.699998' /></g><g partID='67220'><line stroke-linecap='round' stroke='#cc1414' x1='209.904' y1='145.488' x2='202.772' y2='145.441' stroke-width='0.699998' /></g><g partID='93240'><line stroke-linecap='round' stroke='#cc1414' x1='108.912' y1='195.824' x2='108.912' y2='167.168' stroke-width='0.699998' /></g><g partID='94890'><line stroke-linecap='round' stroke='#cc1414' x1='108.912' y1='167.168' x2='116.304' y2='167.175' stroke-width='0.699998' /></g><g partID='92680'><line stroke-linecap='round' stroke='#404040' x1='87.4018' y1='210.413' x2='87.4018' y2='160.014' stroke-width='0.699998' /></g><g partID='92890'><line stroke-linecap='round' stroke='#404040' x1='274.883' y1='210.153' x2='87.4018' y2='210.413' stroke-width='0.699998' /></g><g partID='92470'><line stroke-linecap='round' stroke='#404040' x1='274.883' y1='138.113' x2='274.883' y2='210.153' stroke-width='0.699998' /></g><g partID='67290'><line stroke-linecap='round' stroke='#404040' x1='268.204' y1='138.29' x2='274.883' y2='138.113' stroke-width='0.699998' /></g><circle  fill="black" cx="268.204" cy="138.29" r="1.44" stroke-width="0" stroke="none" /><g partID='92260'><line stroke-linecap='round' stroke='#404040' x1='87.4018' y1='160.014' x2='116.304' y2='159.975' stroke-width='0.699998' /></g><circle  fill="black" cx="116.304" cy="159.975" r="1.44" stroke-width="0" stroke="none" /><g partID='89970'><line stroke-linecap='round' stroke='#418dd9' x1='296.158' y1='80.8155' x2='288.384' y2='80.6882' stroke-width='0.699998' /></g><g partID='89900'><line stroke-linecap='round' stroke='#418dd9' x1='296.158' y1='30.3609' x2='296.158' y2='80.8155' stroke-width='0.699998' /></g><g partID='67360'><line stroke-linecap='round' stroke='#418dd9' x1='116.304' y1='44.6876' x2='108.912' y2='44.5807' stroke-width='0.699998' /></g><g partID='89830'><line stroke-linecap='round' stroke='#418dd9' x1='108.912' y1='30.2524' x2='296.158' y2='30.3609' stroke-width='0.699998' /></g><g partID='89760'><line stroke-linecap='round' stroke='#418dd9' x1='108.912' y1='44.5807' x2='108.912' y2='30.2524' stroke-width='0.699998' /></g><g partID='90150'><line stroke-linecap='round' stroke='#25cc35' x1='188.431' y1='37.6336' x2='288.885' y2='37.6336' stroke-width='0.699998' /></g><g partID='90260'><line stroke-linecap='round' stroke='#25cc35' x1='188.431' y1='102.179' x2='188.431' y2='37.6336' stroke-width='0.699998' /></g><g partID='90040'><line stroke-linecap='round' stroke='#25cc35' x1='288.885' y1='37.6336' x2='288.384' y2='67.7282' stroke-width='0.699998' /></g><g partID='67430'><line stroke-linecap='round' stroke='#25cc35' x1='173.905' y1='102.358' x2='188.431' y2='102.179' stroke-width='0.699998' /></g><g partID='90800'><line stroke-linecap='round' stroke='#ff7300' x1='195.612' y1='76.3397' x2='217.104' y2='76.3682' stroke-width='0.699998' /></g><g partID='90690'><line stroke-linecap='round' stroke='#ff7300' x1='195.704' y1='109.452' x2='195.612' y2='76.3397' stroke-width='0.699998' /></g><g partID='67500'><line stroke-linecap='round' stroke='#ff7300' x1='173.904' y1='109.527' x2='195.704' y2='109.452' stroke-width='0.699998' /></g><g partID='69740'><line stroke-linecap='round' stroke='#404040' x1='65.9037' y1='80.6882' x2='65.9035' y2='102.288' stroke-width='0.699998' /></g><g partID='69810'><line stroke-linecap='round' stroke='#404040' x1='44.3037' y1='102.288' x2='44.3035' y2='109.488' stroke-width='0.699998' /></g><g partID='85940'><line stroke-linecap='round' stroke='#404040' x1='1.05179' y1='80.7996' x2='37.1035' y2='80.6882' stroke-width='0.699998' /></g><g partID='86110'><line stroke-linecap='round' stroke='#404040' x1='1.05179' y1='160.004' x2='1.05179' y2='80.7996' stroke-width='0.699998' /></g><g partID='69880'><line stroke-linecap='round' stroke='#404040' x1='116.304' y1='159.975' x2='1.05179' y2='160.004' stroke-width='0.699998' /></g><circle  fill="black" cx="116.304" cy="159.975" r="1.44" stroke-width="0" stroke="none" /><g partID='86450'><line stroke-linecap='round' stroke='#404040' x1='1.05179' y1='102.292' x2='15.5035' y2='102.288' stroke-width='0.699998' /></g><g partID='86280'><line stroke-linecap='round' stroke='#404040' x1='1.05179' y1='160.004' x2='1.05179' y2='102.292' stroke-width='0.699998' /></g><g partID='70030'><line stroke-linecap='round' stroke='#404040' x1='116.304' y1='159.975' x2='1.05179' y2='160.004' stroke-width='0.699998' /></g><g partID='71360'><line stroke-linecap='round' stroke='#cc1414' x1='116.304' y1='131.159' x2='65.9274' y2='130.949' stroke-width='0.699998' /></g><g partID='85850'><line stroke-linecap='round' stroke='#cc1414' x1='65.9274' y1='130.949' x2='65.9035' y2='123.889' stroke-width='0.699998' /></g><g partID='85780'><line stroke-linecap='round' stroke='#cc1414' x1='44.4349' y1='138.113' x2='44.3035' y2='131.089' stroke-width='0.699998' /></g><g partID='71630'><line stroke-linecap='round' stroke='#cc1414' x1='116.304' y1='138.374' x2='44.4349' y2='138.113' stroke-width='0.699998' /></g><g partID='88100'><line stroke-linecap='round' stroke='#cc1414' x1='94.7505' y1='30.2707' x2='94.5841' y2='116.621' stroke-width='0.699998' /></g><g partID='89130'><line stroke-linecap='round' stroke='#cc1414' x1='94.5841' y1='116.621' x2='116.304' y2='116.689' stroke-width='0.699998' /></g><g partID='88450'><line stroke-linecap='round' stroke='#404040' x1='1.05179' y1='160.004' x2='1.05179' y2='30.2524' stroke-width='0.699998' /></g><g partID='88660'><line stroke-linecap='round' stroke='#404040' x1='1.05179' y1='30.2524' x2='66.866' y2='30.3022' stroke-width='0.699998' /></g><g partID='88240'><line stroke-linecap='round' stroke='#404040' x1='116.304' y1='159.975' x2='1.05179' y2='160.004' stroke-width='0.699998' /></g><circle  fill="black" cx="116.304" cy="159.975" r="1.44" stroke-width="0" stroke="none" /><g partID='95700'><line stroke-linecap='round' stroke='#cc1414' x1='94.7035' y1='15.8882' x2='137.904' y2='15.8882' stroke-width='0.699998' /></g><g partID='95810'><line stroke-linecap='round' stroke='#cc1414' x1='166.704' y1='15.8882' x2='202.843' y2='15.924' stroke-width='0.699998' /></g><g partID='95920'><line stroke-linecap='round' stroke='#cc1414' x1='202.843' y1='138.113' x2='209.904' y2='138.288' stroke-width='0.699998' /></g><circle  fill="black" cx="209.904" cy="138.288" r="1.44" stroke-width="0" stroke="none" /><g partID='96030'><line stroke-linecap='round' stroke='#cc1414' x1='202.843' y1='15.924' x2='202.843' y2='138.113' stroke-width='0.699998' /></g><g partID='65100' id='partLabel'><g transform='translate(9.32319,117.13)' ><g font-size='5' font-style='normal' font-weight='normal' fill='#000000' font-family="'DroidSans'" id='schematicLabel' fill-opacity='1' stroke='none' ><text x='0' y='3.75'>Detection LED</text><text x='0' y='8.75'>Red (633nm)</text></g></g></g><g partID='65130' id='partLabel'><g transform='translate(67.9218,119.442)' ><g font-size='5' font-style='normal' font-weight='normal' fill='#000000' font-family="'DroidSans'" id='schematicLabel' fill-opacity='1' stroke='none' ><text x='0' y='3.75'>Connection LED</text><text x='0' y='8.75'>Green (570nm)</text></g></g></g><g partID='66020' id='partLabel'><g transform='translate(23.1438,87.8564)' ><g font-size='5' font-style='normal' font-weight='normal' fill='#000000' font-family="'DroidSans'" id='schematicLabel' fill-opacity='1' stroke='none' ><text x='0' y='3.75'>R1</text><text x='0' y='8.75'>220&#x3a9;</text></g></g></g><g partID='66050' id='partLabel'><g transform='translate(42.688,64.5986)' ><g font-size='5' font-style='normal' font-weight='normal' fill='#000000' font-family="'DroidSans'" id='schematicLabel' fill-opacity='1' stroke='none' ><text x='0' y='3.75'>R2</text><text x='0' y='8.75'>220&#x3a9;</text></g></g></g><g partID='67010' id='partLabel'><g transform='translate(219.814,118.653)' ><g font-size='5' font-style='normal' font-weight='normal' fill='#000000' font-family="'DroidSans'" id='schematicLabel' fill-opacity='1' stroke='none' ><text x='0' y='3.75'>Power Supply</text><text x='0' y='8.75'>545043</text></g></g></g><g partID='67050' id='partLabel'><g transform='translate(235.174,42.9519)' ><g font-size='5' font-style='normal' font-weight='normal' fill='#000000' font-family="'DroidSans'" id='schematicLabel' fill-opacity='1' stroke='none' ><text x='0' y='3.75'>UHF RFID 5P1</text></g></g></g><g partID='78510' id='partLabel'><g transform='translate(140.128,91.8522)' ><g font-size='5' font-style='normal' font-weight='normal' fill='#000000' font-family="'DroidSans'" id='schematicLabel' fill-opacity='1' stroke='none' ><text x='0' y='3.75'>U1</text></g></g></g><g partID='88070' id='partLabel'><g transform='translate(63.2032,33.7936)' ><g font-size='5' font-style='normal' font-weight='normal' fill='#000000' font-family="'DroidSans'" id='schematicLabel' fill-opacity='1' stroke='none' ><text x='0' y='3.75'>Reset Button</text></g></g></g><g partID='95670' id='partLabel'><g transform='translate(146.357,0)' ><g font-size='5' font-style='normal' font-weight='normal' fill='#000000' font-family="'DroidSans'" id='schematicLabel' fill-opacity='1' stroke='none' ><text x='0' y='3.75'>R3</text><text x='0' y='8.75'>1k&#x3a9;</text></g></g></g></svg>